HIERARCHY
ROOT Hips
{
  OFFSET -3.11763 96.5593 62.6462
  CHANNELS 6 Xposition Yposition Zposition Zrotation Xrotation Yrotation
  JOINT Chest
  {
    OFFSET 0 10.5691 -1.07959
    CHANNELS 6 Xposition Yposition Zposition Zrotation Xrotation Yrotation
    JOINT Chest2
    {
      OFFSET 0 11.6675 1.08235
      CHANNELS 6 Xposition Yposition Zposition Zrotation Xrotation Yrotation
      JOINT Chest3
      {
        OFFSET 0 10.5876 0
        CHANNELS 6 Xposition Yposition Zposition Zrotation Xrotation Yrotation
        JOINT Chest4
        {
          OFFSET 0 10.5876 0
          CHANNELS 6 Xposition Yposition Zposition Zrotation Xrotation Yrotation
          JOINT Neck
          {
            OFFSET 0 14.88 0
            CHANNELS 6 Xposition Yposition Zposition Zrotation Xrotation Yrotation
            JOINT Head
            {
              OFFSET 0 9.61473 2.16553
              CHANNELS 6 Xposition Yposition Zposition Zrotation Xrotation Yrotation
              End Site
              {
                OFFSET 0 0 0
              }
            }
          }
          JOINT RightCollar
          {
            OFFSET -3.23953 8.30385 0
            CHANNELS 6 Xposition Yposition Zposition Zrotation Xrotation Yrotation
            JOINT RightShoulder
            {
              OFFSET -15.1725 0 0
              CHANNELS 6 Xposition Yposition Zposition Zrotation Xrotation Yrotation
              JOINT RightElbow
              {
                OFFSET -32.4113 0 0
                CHANNELS 6 Xposition Yposition Zposition Zrotation Xrotation Yrotation
                JOINT RightWrist
                {
                  OFFSET -26.4919 0 1.0813
                  CHANNELS 6 Xposition Yposition Zposition Zrotation Xrotation Yrotation
                  End Site
                  {
                    OFFSET 0 0 0
                  }
                }
              }
            }
          }
          JOINT LeftCollar
          {
            OFFSET 3.23953 8.30385 0
            CHANNELS 6 Xposition Yposition Zposition Zrotation Xrotation Yrotation
            JOINT LeftShoulder
            {
              OFFSET 15.1725 0 0
              CHANNELS 6 Xposition Yposition Zposition Zrotation Xrotation Yrotation
              JOINT LeftElbow
              {
                OFFSET 32.4113 0 0
                CHANNELS 6 Xposition Yposition Zposition Zrotation Xrotation Yrotation
                JOINT LeftWrist
                {
                  OFFSET 26.4919 0 1.0813
                  CHANNELS 6 Xposition Yposition Zposition Zrotation Xrotation Yrotation
                  End Site
                  {
                    OFFSET 0 0 0
                  }
                }
              }
            }
          }
        }
      }
    }
  }
  JOINT RightHip
  {
    OFFSET -8.63673 0.00547028 0
    CHANNELS 6 Xposition Yposition Zposition Zrotation Xrotation Yrotation
    JOINT RightKnee
    {
      OFFSET 0.000153637 -44.4933 -2.13963
      CHANNELS 6 Xposition Yposition Zposition Zrotation Xrotation Yrotation
      JOINT RightAnkle
      {
        OFFSET 0 -43.4408 -3.54051
        CHANNELS 6 Xposition Yposition Zposition Zrotation Xrotation Yrotation
        JOINT RightToe
        {
          OFFSET 0 -8.3927 19.1252
          CHANNELS 6 Xposition Yposition Zposition Zrotation Xrotation Yrotation
          End Site
          {
            OFFSET 0 0 0
          }
        }
      }
    }
  }
  JOINT LeftHip
  {
    OFFSET 8.63674 0.00547028 0
    CHANNELS 6 Xposition Yposition Zposition Zrotation Xrotation Yrotation
    JOINT LeftKnee
    {
      OFFSET 0 -44.4932 -2.13963
      CHANNELS 6 Xposition Yposition Zposition Zrotation Xrotation Yrotation
      JOINT LeftAnkle
      {
        OFFSET 0 -43.4408 -3.5405
        CHANNELS 6 Xposition Yposition Zposition Zrotation Xrotation Yrotation
        JOINT LeftToe
        {
          OFFSET 0 -8.39271 19.1252
          CHANNELS 6 Xposition Yposition Zposition Zrotation Xrotation Yrotation
          End Site
          {
            OFFSET 0 0 0
          }
        }
      }
    }
  }
}
MOTION
Frames:	7
Frame Time:	0.0333333
101.613 94.3294 46.7379 3.41254 -5.41352 -17.8309 1.42109e-014 10.5691 -1.07959 -0.287622 1.79924 0.734971 0 11.6675 1.08235 -0.598753 3.59459 1.48007 0 10.5876 -3.55271e-015 -0.598754 3.59459 1.48008 -1.42109e-014 10.5876 0 -0.598753 3.59459 1.48007 0 14.8799 0 9.45089 28.5457 22.887 0 9.61473 2.16553 -41.5613 -4.46139 36.5232 -3.23953 8.30385 0 -9.93923e-016 -2.38542e-015 -0 -15.1725 -4.76837e-006 7.10543e-015 63.6791 14.0126 3.09009 -32.4113 -2.2443e-006 -2.97883e-006 21.9015 -2.30477 23.3676 -26.4919 3.92682e-006 1.0813 -15.4183 -0.0263981 -1.54145 3.23953 8.30385 0 -9.93923e-016 -2.38542e-015 -0 15.1725 -4.76837e-006 0 -70.0214 -15.1638 -5.48518 32.4113 -5.78124e-006 -2.428e-006 -15.0707 -1.33447 -1.41785 26.4919 2.43518e-006 1.0813 9.35472 -0.126305 0.184817 -8.63673 0.00547028 0 -1.59601 -11.4715 -13.658 0.000153637 -44.4924 -2.13963 -3.14046 10.6609 -10.8271 5.16973e-008 -43.4408 -3.54051 -6.93685 -0.331652 -10.259 -2.26885e-007 -8.3927 19.1252 2.29297 2.69574 -8.8968 8.63674 0.00547028 0 12.517 -17.6641 -3.28309 -2.31982e-007 -44.4932 -2.13963 -3.08398 35.3366 5.9234 1.48682e-007 -43.4408 -3.5405 0.164467 6.61143 2.47383 -3.68445e-008 -8.39271 19.1252 1.43534 -3.69449 7.54866 
103.937 94.333 46.091 2.93481 -5.08003 -15.2595 1.42109e-014 10.5691 -1.07959 -0.165026 1.73972 0.588677 -2.84217e-014 11.6675 1.08235 -0.348178 3.47766 1.18318 1.42109e-014 10.5876 -7.10543e-015 -0.348177 3.47766 1.18318 0 10.5876 0 -0.348178 3.47766 1.18318 0 14.8799 0 8.84552 28.6085 23.1002 -2.84217e-014 9.61473 2.16553 -40.7764 -4.55504 36.2704 -3.23953 8.30385 7.10543e-015 -5.96354e-016 -7.95139e-016 1.59028e-015 -15.1725 -4.76837e-006 7.10543e-015 64.4923 13.9351 2.30804 -32.4113 -2.2443e-006 -2.97883e-006 22.1739 -2.96588 23.8121 -26.4919 3.92682e-006 1.0813 -15.0118 0.123336 -2.66176 3.23953 8.30385 0 -5.96354e-016 -7.95139e-016 1.59028e-015 15.1725 -4.76837e-006 -1.42109e-014 -70.2226 -13.0273 -7.18279 32.4113 -5.78124e-006 -2.428e-006 -15.5161 -0.449503 -4.05606 26.4919 2.43518e-006 1.0813 9.30705 -0.17382 -0.397941 -8.63673 0.00547028 3.55271e-015 -2.68157 -12.016 -14.6922 0.000153637 -44.4924 -2.13963 -3.04251 10.3643 -11.7316 5.16973e-008 -43.4408 -3.54051 -6.31938 1.02165 -10.6446 -2.26885e-007 -8.3927 19.1252 2.36949 2.75992 -9.18792 8.63674 0.00547028 0 13.8122 -15.4995 -3.17857 -2.31982e-007 -44.4932 -2.13963 -2.18461 34.2752 4.27321 1.48682e-007 -43.4408 -3.5405 -1.09573 6.27819 1.52974 -3.68445e-008 -8.39271 19.1252 0.534786 -2.7588 7.62355 
106.468 94.2586 45.3981 2.54784 -4.70509 -12.9827 1.42109e-014 10.5691 -1.07959 -0.0955127 1.67549 0.487348 1.42109e-014 11.6675 1.08235 -0.205423 3.35011 0.978115 0 10.5876 0 -0.205423 3.35011 0.978116 -1.42109e-014 10.5876 -1.06581e-014 -0.205422 3.35011 0.978112 1.42109e-014 14.8799 -7.10543e-015 9.34275 28.2439 22.999 0 9.61473 2.16553 -40.6366 -4.51557 36.3663 -3.23953 8.30385 7.10543e-015 -7.95139e-016 1.59028e-015 -0 -15.1725 -4.76837e-006 0 65.2417 13.3582 1.66854 -32.4113 -2.2443e-006 -2.97883e-006 22.077 -2.96098 23.8546 -26.4919 3.92682e-006 1.0813 -15.3193 0.109063 -2.54109 3.23953 8.30385 0 -7.95139e-016 1.59028e-015 -0 15.1725 -4.76837e-006 -7.10543e-015 -69.8591 -10.3248 -8.88215 32.4113 -5.78124e-006 -2.428e-006 -15.9802 0.433447 -7.34454 26.4919 2.43518e-006 1.0813 8.70598 -0.193945 -0.855361 -8.63673 0.00547028 7.10543e-015 -4.00166 -12.7834 -15.1516 0.000153637 -44.4924 -2.13963 -2.83067 10.3109 -12.8531 5.16973e-008 -43.4408 -3.54051 -5.86633 2.29906 -11.1231 -2.26885e-007 -8.3927 19.1252 2.51369 3.05215 -9.491 8.63674 0.00547028 3.55271e-015 14.6307 -12.6213 -3.67252 -2.31982e-007 -44.4932 -2.13963 -1.81838 30.3321 2.91749 1.48682e-007 -43.4408 -3.5405 -4.22871 7.3529 0.935509 -3.68445e-008 -8.39271 19.1252 -1.37669 -0.786515 7.84749 
109.253 93.9603 44.6423 1.79659 -4.19515 -10.9619 -1.42109e-014 10.5691 -1.07959 0.0713171 1.60296 0.397866 0 11.6675 1.08235 0.131579 3.20638 0.79413 0 10.5876 7.10543e-015 0.131578 3.20637 0.794135 -1.42109e-014 10.5876 -1.06581e-014 0.131579 3.20638 0.79413 1.42109e-014 14.8799 0 9.50665 28.2878 23.0722 0 9.61473 2.16553 -40.8215 -4.96335 36.4252 -3.23953 8.30385 7.10543e-015 5.96354e-016 -1.59028e-015 1.59028e-015 -15.1725 -4.76837e-006 0 65.0888 12.9356 1.31822 -32.4113 -2.2443e-006 -2.97883e-006 21.6963 -2.66589 23.7876 -26.4919 3.92682e-006 1.0813 -15.3144 0.0489308 -2.09428 3.23953 8.30385 7.10543e-015 5.96354e-016 -1.59028e-015 1.59028e-015 15.1725 -4.76837e-006 -2.13163e-014 -69.8 -7.45078 -10.2608 32.4113 -5.78124e-006 -2.428e-006 -15.7286 2.788 -11.0087 26.4919 2.43518e-006 1.0813 7.66594 -0.305576 -2.80861 -8.63673 0.00547028 0 -5.18802 -13.9752 -15.8613 0.000153637 -44.4924 -2.13963 -2.76407 10.9379 -13.5299 5.16973e-008 -43.4408 -3.54051 -4.90893 3.23845 -11.5317 -2.26885e-007 -8.3927 19.1252 2.74527 3.54294 -9.92739 8.63674 0.00547028 7.10543e-015 15.3621 -9.24819 -5.04448 -2.31982e-007 -44.4932 -2.13963 -2.2564 24.012 2.94352 1.48682e-007 -43.4408 -3.5405 -5.8685 8.43053 1.07244 -3.68445e-008 -8.39271 19.1252 -1.50894 -1.33846 10.3269 
112.161 93.6561 43.7682 0.984455 -3.71689 -8.95643 0 10.5691 -1.07959 0.238987 1.54821 0.299331 -2.84217e-014 11.6675 1.08235 0.470127 3.09764 0.592509 0 10.5876 -3.55271e-015 0.470126 3.09764 0.592516 2.84217e-014 10.5876 -1.42109e-014 0.470126 3.09764 0.59251 0 14.88 -7.10543e-015 9.78891 28.2102 23.1089 2.84217e-014 9.61473 2.16553 -40.8746 -5.30735 36.5016 -3.23953 8.30385 0 -1.2921e-015 -7.95139e-016 -0 -15.1725 -4.76837e-006 -3.55271e-015 64.359 12.5601 1.48886 -32.4113 -2.2443e-006 -2.97883e-006 21.8656 -2.81714 23.623 -26.4919 3.92682e-006 1.0813 -15.3503 0.0783671 -2.30632 3.23953 8.30385 3.55271e-015 -1.2921e-015 -7.95139e-016 -0 15.1725 -4.76837e-006 -1.42109e-014 -69.6194 -4.41701 -11.672 32.4113 -5.78124e-006 -2.428e-006 -15.4025 3.81608 -15.6406 26.4919 2.43518e-006 1.0813 7.37228 -0.328261 -3.35348 -8.63673 0.00547028 0 -6.29264 -14.8027 -16.2888 0.000153637 -44.4923 -2.13963 -2.68757 10.862 -14.3516 5.16973e-008 -43.4408 -3.54051 -4.23918 4.45774 -11.9732 -2.26885e-007 -8.3927 19.1252 2.89912 4.04368 -9.97511 8.63674 0.00547028 7.10543e-015 15.4572 -6.2169 -6.26042 -2.31982e-007 -44.4932 -2.13963 -2.5799 16.5224 4.24296 1.48682e-007 -43.4408 -3.5405 -4.20466 7.50439 0.0188956 -3.68445e-008 -8.39271 19.1252 5.23739 -7.81417 8.32988 
115.165 93.3745 42.6552 0.865163 -3.25431 -7.20391 -1.42109e-014 10.5691 -1.07959 0.335803 1.55276 0.24836 0 11.6675 1.08235 0.665235 3.10694 0.487902 -1.42109e-014 10.5876 -3.55271e-015 0.665236 3.10694 0.487902 2.84217e-014 10.5876 -1.42109e-014 0.665234 3.10694 0.487903 -1.42109e-014 14.8801 -7.10543e-015 9.64262 27.6612 23.1249 -2.84217e-014 9.61473 2.16553 -41.0601 -4.99155 36.4912 -3.23953 8.30385 -3.55271e-015 5.96354e-016 1.59028e-015 -0 -15.1725 -4.76837e-006 0 62.8597 11.771 2.51146 -32.4113 -2.2443e-006 -2.97883e-006 22.3182 -3.34281 23.0771 -26.4919 3.92682e-006 1.0813 -16.3443 0.121216 -2.57635 3.23953 8.30385 3.55271e-015 5.96354e-016 1.59028e-015 -0 15.1725 -4.76837e-006 -2.13163e-014 -69.693 -1.5418 -13.7858 32.4113 -5.78124e-006 -2.428e-006 -14.6208 5.23406 -19.5919 26.4919 2.43518e-006 1.0813 7.57368 -0.414565 -4.53275 -8.63673 0.00547028 0 -8.03792 -15.8853 -16.1163 0.000153637 -44.4923 -2.13963 -2.63378 10.9244 -15.6197 5.16973e-008 -43.4408 -3.54051 -4.24433 5.18646 -11.6346 -2.26885e-007 -8.3927 19.1252 3.17549 5.1325 -9.78322 8.63674 0.00547028 0 14.7245 -4.7064 -5.36862 -2.31982e-007 -44.4932 -2.13963 -2.69924 10.7579 5.59789 1.48682e-007 -43.4408 -3.5405 -2.93574 6.83504 -0.502816 -3.68445e-008 -8.39271 19.1252 8.73695 -10.9332 4.32068 
118.095 93.2148 41.4829 1.93828 -2.91035 -5.3181 0 10.5691 -1.07959 0.217218 1.54553 0.212768 -1.42109e-014 11.6675 1.08235 0.428932 3.09186 0.419904 -1.42109e-014 10.5876 -1.06581e-014 0.42893 3.09186 0.419905 -1.42109e-014 10.5876 -3.55271e-015 0.42893 3.09186 0.419904 1.42109e-014 14.8801 -3.55271e-015 9.37203 27.7427 22.9706 2.84217e-014 9.61473 2.16553 -40.8227 -4.88237 36.2023 -3.23953 8.30385 -7.10543e-015 1.98785e-016 1.59028e-015 -7.95139e-016 -15.1725 -4.76837e-006 -3.55271e-015 62.1034 9.33892 3.14228 -32.4113 -2.2443e-006 -2.97883e-006 22.0907 -3.36021 22.1012 -26.4919 3.92682e-006 1.0813 -16.9829 0.0753981 -2.23256 3.23953 8.30385 -3.55271e-015 1.98785e-016 1.59028e-015 -7.95139e-016 15.1725 -4.76837e-006 -1.06581e-014 -69.3595 0.923074 -16.1208 32.4113 -5.78124e-006 -2.428e-006 -13.7313 6.41204 -22.5456 26.4919 2.43518e-006 1.0813 7.48244 -0.481276 -5.61886 -8.63673 0.00547028 0 -11.1036 -16.9539 -15.1912 0.000153637 -44.4923 -2.13963 -2.04208 11.3496 -17.8745 5.16973e-008 -43.4408 -3.54051 -5.69676 4.93651 -10.3993 -2.26885e-007 -8.3927 19.1252 2.95514 5.64237 -8.22754 8.63674 0.00547028 7.10543e-015 12.0944 -5.13629 -3.57718 -2.31982e-007 -44.4932 -2.13963 -2.15771 8.5039 4.23596 1.48682e-007 -43.4408 -3.5405 -3.2785 6.22995 -0.411714 -3.68445e-008 -8.39271 19.1252 10.5327 -12.6557 1.61195 
